<?xml version="1.0" encoding="UTF-8"?>
<svg width="200" height="200" viewBox="0 0 200 200" xmlns="http://www.w3.org/2000/svg">
    <circle cx="100" cy="100" r="90" fill="#1a73e8" opacity="0.1"/>
    <path d="M100 30c-38.66 0-70 31.34-70 70 0 38.66 31.34 70 70 70s70-31.34 70-70c0-38.66-31.34-70-70-70zm0 130c-33.14 0-60-26.86-60-60s26.86-60 60-60 60 26.86 60 60-26.86 60-60 60z" fill="#1a73e8"/>
    <path d="M100 50c-5.52 0-10 4.48-10 10v20c0 5.52 4.48 10 10 10s10-4.48 10-10V60c0-5.52-4.48-10-10-10zm0 70c-5.52 0-10 4.48-10 10s4.48 10 10 10 10-4.48 10-10-4.48-10-10-10z" fill="#1a73e8"/>
</svg> 